# xmcd
#
# Track frame offsets:
#	150
#	3619
#	24586
#	51626
#	90047
#	113083
#	161061
#	177978
#	182442
#	218826
#
# Disc length: 3794 seconds
#
# Revision: 1
# Processed by: cddbd v1.5.2PL0 Copyright (c) Steve Scherf et al.
# Submitted via: audiograbber 1.83.01
#
DISCID=7b0ed00a
DTITLE=Grateful Dead - 76-09-30 Mershon Auditorium, Ohio State Uni, Columbus OH
DYEAR=1900
DGENRE=
TTITLE0=Tuning
TTITLE1=St Stephen
TTITLE2=Jam
TTITLE3=Not Fade Away
TTITLE4=Drums
TTITLE5=Wharf Rat
TTITLE6=Not Fade Away
TTITLE7=St Stephen
TTITLE8=Around and Around
TTITLE9=Morning Dew
EXTD=
EXTT0=
EXTT1=
EXTT2=
EXTT3=
EXTT4=
EXTT5=
EXTT6=
EXTT7=
EXTT8=
EXTT9=
PLAYORDER=
